<?xml version="1.0" encoding="utf-8"?>
<!-- Generator: Adobe Illustrator 24.2.1, SVG Export Plug-In . SVG Version: 6.00 Build 0)  -->
<svg version="1.1" id="Layer_1" xmlns="http://www.w3.org/2000/svg" xmlns:xlink="http://www.w3.org/1999/xlink" x="0px" y="0px"
	 viewBox="0 0 141.7 141.7" style="enable-background:new 0 0 141.7 141.7;" xml:space="preserve">
<style type="text/css">
	.st0{fill:none;}
	.st1{fill:#343333;}
</style>
<rect class="st0" width="141.7" height="141.7"/>
<g>
	<path class="st1" d="M119,120.5c-0.4,0-0.8-0.2-1.1-0.5L21.6,23.9c-0.6-0.7-0.5-1.7,0.2-2.3c0.6-0.5,1.5-0.5,2.1,0l96.2,96.2
		c0.6,0.6,0.6,1.6,0,2.3C119.8,120.4,119.4,120.5,119,120.5z"/>
	<path class="st1" d="M22.8,120.5c-0.9,0-1.6-0.7-1.6-1.6c0-0.4,0.2-0.8,0.5-1.1l96.2-96.2c0.7-0.6,1.7-0.5,2.3,0.2
		c0.5,0.6,0.5,1.5,0,2.1l-96.2,96.2C23.6,120.4,23.2,120.5,22.8,120.5z"/>
</g>
</svg>
