<svg xmlns="http://www.w3.org/2000/svg" viewBox="0 0 137.8 141.5"><defs><style>.cls-1{fill:#ffc943;}.cls-2{fill:#ffd683;}.cls-3{fill:#f7b521;}.cls-4{fill:#fff7e9;}.cls-5{fill:#343333;}.cls-6{fill:#eff5f9;}.cls-7{fill:#fff;}.cls-8{fill:#cfdbe2;}.cls-9{fill:#4d4d4d;}.cls-10{fill:#9fdef4;}</style></defs><g id="Layer_2" data-name="Layer 2"><g id="Layer_1-2" data-name="Layer 1"><circle class="cls-1" cx="40.25" cy="40.25" r="38.65"/><circle class="cls-2" cx="29.14" cy="29.26" r="22.84"/><path class="cls-3" d="M13,67.66A38.59,38.59,0,0,0,67.54,13.09s15.19,30-4.69,49.88C42.1,83.59,13,67.66,13,67.66Z"/><path class="cls-4" d="M10,39H9.51a2.68,2.68,0,0,1-2.1-3.09A36.94,36.94,0,0,1,23.34,11.85a2.61,2.61,0,1,1,2.71,4.45h0a28.7,28.7,0,0,0-5.8,5.06,32.14,32.14,0,0,0-7.66,15.43A2.63,2.63,0,0,1,10,39Z"/><circle class="cls-4" cx="9.75" cy="43.83" r="3.09"/><path class="cls-5" d="M40.25,80.5A40.25,40.25,0,1,1,80.5,40.25,40.26,40.26,0,0,1,40.25,80.5Zm0-77.17a37,37,0,1,0,37,37.05A37.15,37.15,0,0,0,40.25,3.33Z"/><path class="cls-6" d="M136.31,71.61a21.93,21.93,0,0,1-21.6,21.86H25.44a24.18,24.18,0,0,1-3.21-48,16.18,16.18,0,0,1-.5-4.32A18.17,18.17,0,0,1,54,29.63a34,34,0,0,1,65.69,12.1,32.21,32.21,0,0,1-1.12,8.52A21.86,21.86,0,0,1,136.31,71.61Z"/><circle class="cls-7" cx="33.21" cy="31.73" r="5.56"/><circle class="cls-7" cx="57.41" cy="59.88" r="7.41"/><path class="cls-8" d="M29.88,85.81C6.91,85.81,2,70.87,2,70.87c3.45,23.83,25.43,22.6,25.43,22.6h87.42c9.63,0,19.14-5.93,21.48-18.27S129,55.69,129,55.69c1.48,2.1,10.74,30-18,30H38.52Z"/><path class="cls-8" d="M118.41,50.25A37,37,0,0,0,115,26.18s5.44,21-14.57,26.05C100.26,52.11,111,48.28,118.41,50.25Z"/><path class="cls-8" d="M67.05,86.68S82.85,84.58,84,71.24a19.7,19.7,0,0,0-9.14-19s22.35,7.16,16.67,35.19"/><path class="cls-7" d="M67.29,28.65a3.7,3.7,0,0,1-2-.62,3.55,3.55,0,0,1-.87-4.94c8-11.61,22.85-11.11,23.46-11a3.66,3.66,0,0,1,3.46,3.7,3.66,3.66,0,0,1-3.7,3.46c-.13,0-11.49-.37-17.29,8A4.23,4.23,0,0,1,67.29,28.65Z"/><path class="cls-7" d="M10,68.16a3.71,3.71,0,0,1-1.11-.25,3.64,3.64,0,0,1-2.22-4.57A21,21,0,0,1,19,50.25a23.85,23.85,0,0,1,8.4-1.73A3.58,3.58,0,0,1,31,52.11a3.47,3.47,0,0,1-3.58,3.45h0c-.49,0-10.62.13-13.95,10A3.63,3.63,0,0,1,10,68.16Z"/><path class="cls-7" d="M100.63,64.58a3.76,3.76,0,0,1-2.72-1.24,3.68,3.68,0,0,1,.5-5.06c7.78-6.42,17.53-4.69,17.9-4.57a3.59,3.59,0,1,1-1.36,7c-.12,0-6.91-1.11-12,3.09A4.41,4.41,0,0,1,100.63,64.58Z"/><path class="cls-5" d="M114.71,95.07H25.31A25.72,25.72,0,0,1,.37,69.39,26.08,26.08,0,0,1,6.54,52.6a25.78,25.78,0,0,1,13.71-8.4,24.45,24.45,0,0,1-.25-3A19.75,19.75,0,0,1,53.22,26.79,35.53,35.53,0,0,1,121,41.73a35.22,35.22,0,0,1-.74,7.29A23.43,23.43,0,0,1,137.8,71.74a23.41,23.41,0,0,1-23.09,23.33ZM26.18,91.86H115a20.11,20.11,0,0,0,14.08-6,19.86,19.86,0,0,0,5.8-14.2,20.24,20.24,0,0,0-16.54-19.87,1.8,1.8,0,0,1-1.11-.75,1.51,1.51,0,0,1-.25-1.23,29.52,29.52,0,0,0,1-8.15A32.38,32.38,0,0,0,85.57,9.26,32.27,32.27,0,0,0,55.32,30.13a1.73,1.73,0,0,1-1.24,1,1.43,1.43,0,0,1-1.48-.62A16.58,16.58,0,0,0,23.21,41a14.41,14.41,0,0,0,.5,3.95,1.54,1.54,0,0,1-.25,1.24,1.8,1.8,0,0,1-1.11.74A22.73,22.73,0,0,0,3.46,69.27,21.92,21.92,0,0,0,9.88,85a22.21,22.21,0,0,0,15.43,6.79h.37A1,1,0,0,0,26.18,91.86Z"/><path class="cls-9" d="M23.83,91.37h-.62v.12A5.72,5.72,0,0,1,23.83,91.37Z"/><path class="cls-9" d="M104,91.49Z"/><path class="cls-5" d="M40.13,47.78a.79.79,0,0,1-.5-.12c-8.14-2.72-18.89-.37-19-.37A1.58,1.58,0,0,1,20,44.2c.5-.12,11.73-2.47,20.75.5a1.55,1.55,0,0,1,1,2A1.82,1.82,0,0,1,40.13,47.78Z"/><path class="cls-5" d="M99.89,54.45a1.57,1.57,0,0,1-1.36-.74,1.6,1.6,0,0,1,.5-2.22c8.39-5.06,20.49-2.72,21-2.59A1.57,1.57,0,1,1,119.4,52c-.13,0-11.36-2.1-18.65,2.22A1.3,1.3,0,0,1,99.89,54.45Z"/><circle class="cls-5" cx="94.33" cy="55.32" r="2.22"/><circle class="cls-5" cx="57.91" cy="41.73" r="2.22"/><circle class="cls-5" cx="89.39" cy="67.91" r="2.22"/><path class="cls-5" d="M56.43,37.78a1.71,1.71,0,0,1-1.61-1.36,17.71,17.71,0,0,0-3-6.66,1.59,1.59,0,1,1,2.59-1.86A19.23,19.23,0,0,1,58,36.05a1.66,1.66,0,0,1-1.36,1.86A.36.36,0,0,0,56.43,37.78Z"/><path class="cls-5" d="M39.39,71.24h-.13a1.73,1.73,0,0,1-1.48-1.72,23,23,0,0,1,2.47-7.66,24.29,24.29,0,0,1,14-11.48A32.66,32.66,0,0,1,78.78,52c5.06,2.47,8.64,6.18,9.87,10a1.56,1.56,0,1,1-3,1c-1-3-4.07-6-8.27-8.15a29.27,29.27,0,0,0-22.1-1.48,21.07,21.07,0,0,0-12.1,9.88A17.42,17.42,0,0,0,41,69.76,1.69,1.69,0,0,1,39.39,71.24Z"/><circle class="cls-10" cx="28.28" cy="121.13" r="5.56"/><circle class="cls-7" cx="26.67" cy="119.27" r="2.1"/><path class="cls-5" d="M28.28,128.16a6.91,6.91,0,1,1,6.91-6.91A7,7,0,0,1,28.28,128.16Zm0-10.74a3.71,3.71,0,1,0,0,7.41,3.8,3.8,0,0,0,3.7-3.7A3.64,3.64,0,0,0,28.28,117.42Z"/><circle class="cls-10" cx="55.69" cy="121.13" r="5.56"/><circle class="cls-7" cx="54.08" cy="119.27" r="2.1"/><path class="cls-5" d="M55.69,128.16a6.91,6.91,0,1,1,6.91-6.91A7,7,0,0,1,55.69,128.16Zm0-10.74a3.71,3.71,0,1,0,0,7.41,3.8,3.8,0,0,0,3.7-3.7A3.71,3.71,0,0,0,55.69,117.42Z"/><circle class="cls-10" cx="83.22" cy="121.13" r="5.56"/><circle class="cls-7" cx="81.74" cy="119.27" r="2.1"/><path class="cls-5" d="M83.22,128.16a6.91,6.91,0,1,1,6.92-6.91A6.89,6.89,0,0,1,83.22,128.16Zm0-10.74a3.71,3.71,0,1,0,3.7,3.71A3.63,3.63,0,0,0,83.22,117.42Z"/><circle class="cls-10" cx="111.62" cy="121.13" r="5.56"/><circle class="cls-7" cx="110.01" cy="119.27" r="2.1"/><path class="cls-5" d="M111.62,128.16a6.91,6.91,0,1,1,6.91-6.91A7,7,0,0,1,111.62,128.16Zm0-10.74a3.71,3.71,0,0,0,0,7.41,3.71,3.71,0,0,0,0-7.41Z"/><path class="cls-5" d="M96.31,134.83h-.25A1.59,1.59,0,0,1,94.7,133l4.2-32.23a1.62,1.62,0,0,1,3.21.5l-4.2,32.22A1.69,1.69,0,0,1,96.31,134.83Z"/><path class="cls-5" d="M68.28,134.83H68A1.58,1.58,0,0,1,66.68,133l4.19-32.23a1.62,1.62,0,0,1,3.21.5l-4.19,32.22A1.71,1.71,0,0,1,68.28,134.83Z"/><path class="cls-5" d="M57.66,112.24h-.25a1.54,1.54,0,0,1-1.35-1.73L57.17,101a1.55,1.55,0,1,1,3.08.37l-1.11,9.51A1.48,1.48,0,0,1,57.66,112.24Z"/><path class="cls-5" d="M29.76,112.24h-.25a1.55,1.55,0,0,1-1.36-1.73L29.26,101a1.56,1.56,0,0,1,3.09.37l-1.11,9.51A1.4,1.4,0,0,1,29.76,112.24Z"/><path class="cls-5" d="M112.85,112.24h-.24a1.54,1.54,0,0,1-1.36-1.73l1.11-9.51a1.56,1.56,0,0,1,3.09.37l-1.11,9.51A1.49,1.49,0,0,1,112.85,112.24Z"/><path class="cls-5" d="M85,112.24H84.7a1.55,1.55,0,0,1-1.36-1.73L84.46,101a1.55,1.55,0,1,1,3.08.37l-1.11,9.51A1.4,1.4,0,0,1,85,112.24Z"/><path class="cls-5" d="M40.38,134.83h-.25A1.58,1.58,0,0,1,38.77,133L43,100.75a1.62,1.62,0,0,1,3.21.5L42,133.35A1.6,1.6,0,0,1,40.38,134.83Z"/><circle class="cls-5" cx="39.39" cy="139.52" r="1.98"/><circle class="cls-5" cx="67.42" cy="139.52" r="1.98"/><circle class="cls-5" cx="95.44" cy="139.52" r="1.98"/></g></g></svg>