<svg xmlns="http://www.w3.org/2000/svg" viewBox="0 0 141.6 141.6"><defs><style>.cls-1{fill:#ffc943;}.cls-2{fill:#ffd683;}.cls-3{fill:#f7b521;}.cls-4{fill:#fff7e9;}.cls-5{fill:#343333;}</style></defs><g id="Layer_2" data-name="Layer 2"><g id="Layer_1-2" data-name="Layer 1"><circle class="cls-1" cx="70.8" cy="71.15" r="44.61"/><circle class="cls-2" cx="58.05" cy="58.29" r="26.42"/><path class="cls-3" d="M39.28,102.67a44.58,44.58,0,0,0,63-63s17.5,34.65-5.45,57.59C73,121.09,39.28,102.67,39.28,102.67Z"/><path class="cls-4" d="M35.92,69.64h-.58a3.09,3.09,0,0,1-2.43-3.48A43.23,43.23,0,0,1,51.22,38.35a3,3,0,0,1,3.13,5.22h0a32.76,32.76,0,0,0-6.73,5.91,37,37,0,0,0-8.8,17.84A3,3,0,0,1,35.92,69.64Z"/><circle class="cls-4" cx="37.78" cy="74.97" r="3.36"/><path class="cls-2" d="M70.8,20.39A2.26,2.26,0,0,1,68.6,18V2.43A2.33,2.33,0,0,1,70.8,0,2.26,2.26,0,0,1,73,2.43V18A2.13,2.13,0,0,1,70.8,20.39Z"/><path class="cls-2" d="M70.8,141.6a2.26,2.26,0,0,1-2.2-2.43V123.64a2.33,2.33,0,0,1,2.2-2.43,2.26,2.26,0,0,1,2.2,2.43v15.53A2.13,2.13,0,0,1,70.8,141.6Z"/><path class="cls-2" d="M57.82,22.13a2.37,2.37,0,0,1-2.89-1.74l-2.21-8.11a2.39,2.39,0,0,1,4.64-1.16l2.2,8.12A2.48,2.48,0,0,1,57.82,22.13Z"/><path class="cls-2" d="M87.37,132.33a2.39,2.39,0,0,1-2.9-1.74l-2.2-8.11a2.39,2.39,0,1,1,4.64-1.16l2.2,8.11A2.56,2.56,0,0,1,87.37,132.33Z"/><path class="cls-2" d="M35.23,35.23a2.39,2.39,0,0,1-3.36,0l-6-5.91A2.38,2.38,0,0,1,29.2,26l5.91,5.91A2.29,2.29,0,0,1,35.23,35.23Z"/><path class="cls-2" d="M115.88,115.88a2.39,2.39,0,0,1-3.36,0L106.61,110a2.38,2.38,0,1,1,3.36-3.36l5.91,5.91A2.39,2.39,0,0,1,115.88,115.88Z"/><path class="cls-2" d="M22.13,57.82a2.38,2.38,0,0,1-2.89,1.74l-8.12-2.2a2.39,2.39,0,0,1,1.16-4.64l8.11,2.21A2.37,2.37,0,0,1,22.13,57.82Z"/><path class="cls-2" d="M132.33,87.37a2.39,2.39,0,0,1-2.9,1.74l-8.11-2.2a2.39,2.39,0,0,1,1.16-4.64l8.11,2.2A2.34,2.34,0,0,1,132.33,87.37Z"/><path class="cls-2" d="M22.13,83.89a2.38,2.38,0,0,1-1.74,2.9L12.28,89a2.39,2.39,0,0,1-1.16-4.63l8.12-2.2A2.47,2.47,0,0,1,22.13,83.89Z"/><path class="cls-2" d="M132.33,54.35a2.38,2.38,0,0,1-1.74,2.89l-8.11,2.2a2.39,2.39,0,1,1-1.16-4.63l8.11-2.2A2.55,2.55,0,0,1,132.33,54.35Z"/><path class="cls-2" d="M35.23,106.49a2.39,2.39,0,0,1,0,3.36l-5.91,5.91A2.38,2.38,0,1,1,26,112.4l5.91-5.91A2.37,2.37,0,0,1,35.23,106.49Z"/><path class="cls-2" d="M115.88,25.84a2.39,2.39,0,0,1,0,3.36L110,35.11a2.38,2.38,0,1,1-3.36-3.36l5.91-5.91A2.37,2.37,0,0,1,115.88,25.84Z"/><path class="cls-2" d="M57.82,119.58a2.39,2.39,0,0,1,1.74,2.9l-2.2,8.11a2.39,2.39,0,1,1-4.64-1.16l2.21-8.11A2.39,2.39,0,0,1,57.82,119.58Z"/><path class="cls-2" d="M87.37,9.39a2.38,2.38,0,0,1,1.74,2.89l-2.2,8.11a2.39,2.39,0,0,1-4.64-1.15l2.2-8.12A2.34,2.34,0,0,1,87.37,9.39Z"/><path class="cls-2" d="M45.65,27.11a2.34,2.34,0,0,1-3.24-.92L34.65,12.75a2.39,2.39,0,1,1,4.17-2.32l7.76,13.44A2.41,2.41,0,0,1,45.65,27.11Z"/><path class="cls-2" d="M106.26,132.1a2.36,2.36,0,0,1-3.25-.93l-7.76-13.44a2.39,2.39,0,0,1,4.17-2.32l7.76,13.44A2.42,2.42,0,0,1,106.26,132.1Z"/><path class="cls-2" d="M27.11,45.65a2.44,2.44,0,0,1-3.24.93L10.43,38.82a2.39,2.39,0,1,1,2.32-4.17l13.44,7.76A2.23,2.23,0,0,1,27.11,45.65Z"/><path class="cls-2" d="M132.1,106.26a2.45,2.45,0,0,1-3.25.92l-13.44-7.76a2.39,2.39,0,0,1,2.32-4.17L131.17,103A2.24,2.24,0,0,1,132.1,106.26Z"/><path class="cls-2" d="M20.39,70.8A2.26,2.26,0,0,1,18,73H2.43A2.33,2.33,0,0,1,0,70.8a2.26,2.26,0,0,1,2.43-2.2H18A2.26,2.26,0,0,1,20.39,70.8Z"/><path class="cls-2" d="M141.6,70.92a2.26,2.26,0,0,1-2.43,2.2H123.64a2.33,2.33,0,0,1-2.43-2.2,2.26,2.26,0,0,1,2.43-2.21h15.53A2.14,2.14,0,0,1,141.6,70.92Z"/><path class="cls-2" d="M27.11,96.06a2.34,2.34,0,0,1-.92,3.25l-13.44,7.76a2.39,2.39,0,1,1-2.32-4.17l13.44-7.77A2.41,2.41,0,0,1,27.11,96.06Z"/><path class="cls-2" d="M132.1,35.46a2.34,2.34,0,0,1-.93,3.24l-13.44,7.77a2.39,2.39,0,0,1-2.32-4.18l13.44-7.76A2.42,2.42,0,0,1,132.1,35.46Z"/><path class="cls-2" d="M45.65,114.6a2.45,2.45,0,0,1,.93,3.25L38.7,131.29A2.39,2.39,0,0,1,34.53,129l7.76-13.44A2.38,2.38,0,0,1,45.65,114.6Z"/><path class="cls-2" d="M106.26,9.62a2.44,2.44,0,0,1,.92,3.24L99.42,26.3A2.38,2.38,0,1,1,95.25,24L103,10.54A2.24,2.24,0,0,1,106.26,9.62Z"/><path class="cls-5" d="M70.8,117.27a46.12,46.12,0,1,1,46.12-46.12A46.24,46.24,0,0,1,70.8,117.27ZM70.8,28a43.11,43.11,0,1,0,43.11,43.11A43.18,43.18,0,0,0,70.8,28Z"/></g></g></svg>