<svg xmlns="http://www.w3.org/2000/svg" viewBox="0 0 141.7 138.31"><defs><style>.cls-1{fill:#eff5f9;}.cls-2{fill:#fff;}.cls-3{fill:#cfdbe2;}.cls-4{fill:#343333;}.cls-5{fill:#4d4d4d;}.cls-6{fill:#cff1ff;}.cls-7{fill:#61bad6;}</style></defs><g id="Layer_2" data-name="Layer 2"><g id="Layer_1-2" data-name="Layer 1"><path class="cls-1" d="M139.93,67.39A22.56,22.56,0,0,1,117.7,89.9H25.63a24.92,24.92,0,0,1-3.26-49.49,15.51,15.51,0,0,1-.54-4.34A18.75,18.75,0,0,1,40.54,17.36a19.2,19.2,0,0,1,14.51,6.78,35,35,0,0,1,67.66,12.47,38.08,38.08,0,0,1-1.08,8.81A22.32,22.32,0,0,1,139.93,67.39Z"/><circle class="cls-2" cx="33.63" cy="26.31" r="5.69"/><circle class="cls-2" cx="58.71" cy="55.19" r="7.73"/><path class="cls-3" d="M30.24,81.9C6.51,81.9,1.49,66.44,1.49,66.44,5,91,27.66,89.76,27.66,89.76h90c9.89,0,19.79-6.1,22.1-18.84s-7.59-20.07-7.59-20.07c1.49,2.17,11.11,30.78-18.58,30.78H39.19Z"/><path class="cls-3" d="M121.49,45.29a38.34,38.34,0,0,0-3.66-24.82s5.7,21.56-15,26.85C102.78,47.32,113.76,43.25,121.49,45.29Z"/><path class="cls-3" d="M68.61,82.85S84.88,80.68,86.1,67a20.63,20.63,0,0,0-9.49-19.66s23,7.32,17.22,36.21"/><path class="cls-2" d="M68.88,23.19a3.61,3.61,0,0,1-2-.68,3.82,3.82,0,0,1-.95-5.15C74.17,5.42,89.36,6,90,6a3.63,3.63,0,0,1,3.52,3.79,3.74,3.74,0,0,1-3.8,3.53C89.63,13.29,78,13,72,21.56A3.81,3.81,0,0,1,68.88,23.19Z"/><path class="cls-2" d="M9.76,63.73a3.67,3.67,0,0,1-1.22-.14A3.63,3.63,0,0,1,6.24,59,21.26,21.26,0,0,1,19,45.56a24.91,24.91,0,0,1,8.68-1.76,3.66,3.66,0,1,1,0,7.32h0c-.54,0-10.85.13-14.37,10.3A3.89,3.89,0,0,1,9.76,63.73Z"/><path class="cls-2" d="M103.05,60.07a3.42,3.42,0,0,1-2.85-1.36,3.54,3.54,0,0,1,.55-5.15c8-6.64,18-4.88,18.44-4.75A3.62,3.62,0,0,1,122,53.15a3.81,3.81,0,0,1-4.34,3c-.14,0-7-1.22-12.34,3.25A4.2,4.2,0,0,1,103.05,60.07Z"/><path class="cls-4" d="M117.7,91.39H25.63a26.73,26.73,0,0,1-18.17-8A26.17,26.17,0,0,1,0,65,26.53,26.53,0,0,1,6.37,47.73a26,26,0,0,1,14.1-8.54,25.43,25.43,0,0,1-.27-3.12A20.34,20.34,0,0,1,54.51,21.29,37.53,37.53,0,0,1,66.71,6.64a36.61,36.61,0,0,1,57.63,30,34.11,34.11,0,0,1-.81,7.46,24.11,24.11,0,0,1,11.25,40.27,24.83,24.83,0,0,1-17.08,7ZM26.44,88.14H117.7A21.67,21.67,0,0,0,132.21,82a20.37,20.37,0,0,0,6-14.64,20.79,20.79,0,0,0-17.08-20.47,3,3,0,0,1-1.09-.68,2.26,2.26,0,0,1-.27-1.36,34.74,34.74,0,0,0,1.09-8.4A33.42,33.42,0,0,0,87.46,3.12,33.23,33.23,0,0,0,56.27,24.54a1.93,1.93,0,0,1-1.22,1.09,1.53,1.53,0,0,1-1.49-.54A17.05,17.05,0,0,0,23.32,35.93,14.24,14.24,0,0,0,23.86,40a1.67,1.67,0,0,1-.27,1.36,1.38,1.38,0,0,1-1.08.67,23.28,23.28,0,0,0,3.12,46.24H26A.53.53,0,0,1,26.44,88.14Z"/><path class="cls-5" d="M24,87.73h-.68v.14A1.43,1.43,0,0,1,24,87.73Z"/><path class="cls-5" d="M106.58,87.73Z"/><path class="cls-4" d="M40.81,42.71a.85.85,0,0,1-.54-.13c-8.41-2.72-19.52-.41-19.52-.41a1.6,1.6,0,1,1-.68-3.12c.54-.13,12.07-2.57,21.29.54a1.69,1.69,0,0,1,1.08,2A1.75,1.75,0,0,1,40.81,42.71Z"/><path class="cls-4" d="M102.37,49.63a1.48,1.48,0,0,1-1.35-.82,1.72,1.72,0,0,1,.54-2.3c8.54-5.15,21-2.85,21.56-2.71a1.65,1.65,0,1,1-.54,3.25c-.14,0-11.8-2.17-19.26,2.31A1.45,1.45,0,0,1,102.37,49.63Z"/><circle class="cls-4" cx="96.68" cy="50.44" r="2.17"/><circle class="cls-4" cx="59.25" cy="36.48" r="2.17"/><circle class="cls-4" cx="91.53" cy="63.46" r="2.17"/><path class="cls-4" d="M57.63,32.54A1.62,1.62,0,0,1,56,31.05c-.41-3.25-3-6.78-3-6.78a1.59,1.59,0,0,1,.4-2.3,1.69,1.69,0,0,1,2.31.27,20.26,20.26,0,0,1,3.66,8.4A1.68,1.68,0,0,1,58,32.54Z"/><path class="cls-4" d="M40,67h-.14a1.87,1.87,0,0,1-1.49-1.76A24.11,24.11,0,0,1,41,57.36a24.74,24.74,0,0,1,14.37-11.8,33,33,0,0,1,25.36,1.76c5.15,2.58,8.95,6.38,10.17,10.31a1.63,1.63,0,0,1-3.12.95c-1-3.12-4.2-6.24-8.54-8.41a29.56,29.56,0,0,0-22.78-1.49A21.35,21.35,0,0,0,43.93,58.85a18,18,0,0,0-2.3,6.78A1.52,1.52,0,0,1,40,67Z"/><path class="cls-6" d="M49.36,109.83a2.5,2.5,0,0,1-1.09-.27,2.18,2.18,0,0,1-.81-3l4.47-7.87a2.19,2.19,0,0,1,1.9-1.08,2.54,2.54,0,0,1,1.09.27,2.18,2.18,0,0,1,.81,3l-4.48,7.87A2.14,2.14,0,0,1,49.36,109.83Zm4.47-10h0l-4.47,7.86v.14h.13l4.34-8Z"/><path class="cls-6" d="M53.83,109.83a2.17,2.17,0,0,1-1.9-1.08L47.46,101a2.21,2.21,0,0,1,.81-3,2.5,2.5,0,0,1,1.09-.28,2.15,2.15,0,0,1,1.89,1.09l4.48,7.73a2.22,2.22,0,0,1-.81,3A2.54,2.54,0,0,1,53.83,109.83Zm-4.47-9.9h0l4.47,7.73H54v-.13l-4.61-7.6Z"/><path class="cls-6" d="M47.19,106.31h0A2.26,2.26,0,0,1,45,104a2.14,2.14,0,0,1,2.17-2.17h9a2.12,2.12,0,0,1,2.17,2,2.87,2.87,0,0,1-.55,1.49,2.26,2.26,0,0,1-1.62.68Zm9-2.44h-9c0,.13,0,.13.13.13l8.82-.13Z"/><path class="cls-7" d="M49.36,108.75a.82.82,0,0,1-.55-.14,1.09,1.09,0,0,1-.4-1.49L53,99.39A1.09,1.09,0,0,1,54.51,99a1.1,1.1,0,0,1,.41,1.5l-4.61,7.72A1.72,1.72,0,0,1,49.36,108.75Z"/><path class="cls-7" d="M53.83,108.75a1.13,1.13,0,0,1-.95-.55l-4.34-7.72A1.1,1.1,0,0,1,49,99a1.09,1.09,0,0,1,1.49.41l4.34,7.73a1.08,1.08,0,0,1-.41,1.49A.78.78,0,0,1,53.83,108.75Z"/><path class="cls-7" d="M47.19,105.09a1.23,1.23,0,0,1,0-2.44l9-.14h0a1.23,1.23,0,0,1,0,2.44l-9,.14Z"/><path class="cls-6" d="M49.36,138.31a2.65,2.65,0,0,1-1.09-.27,2.2,2.2,0,0,1-.81-3l4.47-7.86a2.18,2.18,0,0,1,1.9-1.09,2.69,2.69,0,0,1,1.09.27,2.2,2.2,0,0,1,.81,3l-4.48,7.86A2.48,2.48,0,0,1,49.36,138.31Zm4.47-10h0l-4.47,7.87v.13h.13l4.34-8Z"/><path class="cls-6" d="M53.83,138.17a2.19,2.19,0,0,1-1.9-1.08l-4.47-7.73a2.23,2.23,0,0,1,.81-3,2.65,2.65,0,0,1,1.09-.27,2.15,2.15,0,0,1,1.89,1.09l4.48,7.73a2.22,2.22,0,0,1-.81,3A1.49,1.49,0,0,1,53.83,138.17Zm-4.47-9.9h0L53.83,136H54v-.13l-4.61-7.6Z"/><path class="cls-6" d="M47.19,134.65h0A2.26,2.26,0,0,1,45,132.34a2.14,2.14,0,0,1,2.17-2.17h9a2.12,2.12,0,0,1,2.17,2,2.87,2.87,0,0,1-.55,1.49,2.25,2.25,0,0,1-1.62.67Zm9-2.31h-9c0,.14,0,.14.13.14l8.82-.14Z"/><path class="cls-7" d="M49.36,137.09a.82.82,0,0,1-.55-.14,1.09,1.09,0,0,1-.4-1.49L53,127.73a1.1,1.1,0,1,1,1.9,1.09l-4.61,7.72C50,137,49.63,137.22,49.36,137.09Z"/><path class="cls-7" d="M53.83,137.22a1.15,1.15,0,0,1-.95-.54L48.54,129a1.09,1.09,0,0,1,1.9-1.08l4.34,7.72a1.09,1.09,0,0,1-.41,1.5A.82.82,0,0,1,53.83,137.22Z"/><path class="cls-7" d="M47.19,133.56a1.23,1.23,0,0,1,0-2.44l9-.14h0a1.23,1.23,0,0,1,0,2.45l-9,.13Z"/><path class="cls-6" d="M87.46,109.83a2.54,2.54,0,0,1-1.09-.27,2.18,2.18,0,0,1-.81-3L90,98.71a2.16,2.16,0,0,1,1.89-1.08A2.5,2.5,0,0,1,93,97.9a2.18,2.18,0,0,1,.81,3l-4.47,7.87A2.17,2.17,0,0,1,87.46,109.83Zm4.47-10h0l-4.47,7.86v.14h.13l4.34-8Z"/><path class="cls-6" d="M91.93,109.83A2.14,2.14,0,0,1,90,108.75L85.56,101a2.21,2.21,0,0,1,.81-3,2.54,2.54,0,0,1,1.09-.28,2.18,2.18,0,0,1,1.9,1.09l4.47,7.73a2.22,2.22,0,0,1-.81,3A2.5,2.5,0,0,1,91.93,109.83Zm-4.47-9.9h0l4.47,7.73h.14v-.13l-4.61-7.6Z"/><path class="cls-6" d="M85.29,106.31h0A2.26,2.26,0,0,1,83.12,104a2.14,2.14,0,0,1,2.17-2.17h8.95a2.12,2.12,0,0,1,2.17,2,2.86,2.86,0,0,1-.54,1.49,2.28,2.28,0,0,1-1.63.68Zm8.95-2.44H85.29c0,.13,0,.13.13.13l8.82-.13Z"/><path class="cls-7" d="M87.32,108.75a.8.8,0,0,1-.54-.14,1.09,1.09,0,0,1-.41-1.49L91,99.39a1.1,1.1,0,1,1,1.9,1.09l-4.61,7.72A1.12,1.12,0,0,1,87.32,108.75Z"/><path class="cls-7" d="M91.93,108.75a1.14,1.14,0,0,1-1-.55l-4.47-7.72a1.1,1.1,0,1,1,1.9-1.09l4.34,7.73a1.09,1.09,0,0,1-.41,1.49C92.34,108.75,92.07,108.75,91.93,108.75Z"/><path class="cls-7" d="M85.29,105.09a1.23,1.23,0,0,1,0-2.44l8.95-.14h0a1.23,1.23,0,0,1,0,2.44l-8.95.14Z"/><path class="cls-6" d="M68.48,124.2a2.5,2.5,0,0,1-1.09-.27,2.17,2.17,0,0,1-.81-3l4.47-7.86A2.18,2.18,0,0,1,73,112a2.6,2.6,0,0,1,1.08.27,2.19,2.19,0,0,1,.82,3l-4.48,7.86A2.73,2.73,0,0,1,68.48,124.2Zm4.47-10h0L68.48,122v.13h.13l4.34-8Z"/><path class="cls-6" d="M73,124.2a2.17,2.17,0,0,1-1.9-1.08l-4.47-7.73a2.21,2.21,0,0,1,.81-3,2.5,2.5,0,0,1,1.09-.27,2.14,2.14,0,0,1,1.89,1.08L74.85,121a2.21,2.21,0,0,1-.82,3A3,3,0,0,1,73,124.2Zm-4.47-10h0c-.14,0-.14.14,0,0L73,121.9h.14v-.14l-4.61-7.59Z"/><path class="cls-6" d="M66.17,120.54h0a2.26,2.26,0,0,1-2.17-2.3,2.14,2.14,0,0,1,2.17-2.17h9a2.12,2.12,0,0,1,2.17,2,2.8,2.8,0,0,1-.54,1.49,2.24,2.24,0,0,1-1.63.68Zm9-2.3h-9c0,.13,0,.13.14.13l8.81-.13Z"/><path class="cls-7" d="M68.34,123.12a.78.78,0,0,1-.54-.14,1.09,1.09,0,0,1-.41-1.49L72,113.76a1.1,1.1,0,0,1,1.9,1.09l-4.61,7.73A1.15,1.15,0,0,1,68.34,123.12Z"/><path class="cls-7" d="M72.81,123.12a1.13,1.13,0,0,1-.94-.54l-4.34-7.73a1.09,1.09,0,0,1,1.89-1.09l4.34,7.73a1.09,1.09,0,0,1-.4,1.49C73.22,123.12,73.09,123.12,72.81,123.12Z"/><path class="cls-7" d="M66.17,119.46a1.23,1.23,0,0,1,0-2.44l9-.14h0a1.23,1.23,0,0,1,0,2.44l-9,.14Z"/><path class="cls-6" d="M106.31,124.2a2.5,2.5,0,0,1-1.09-.27,2.18,2.18,0,0,1-.81-3l4.47-7.86a2.18,2.18,0,0,1,1.9-1.09,2.69,2.69,0,0,1,1.09.27,2.19,2.19,0,0,1,.81,3l-4.48,7.86A2.73,2.73,0,0,1,106.31,124.2Zm4.47-10h0L106.31,122v.13h.13l4.34-8Z"/><path class="cls-6" d="M110.78,124.2a2.17,2.17,0,0,1-1.9-1.08l-4.47-7.73a2.22,2.22,0,0,1,.81-3,2.5,2.5,0,0,1,1.09-.27,2.14,2.14,0,0,1,1.89,1.08l4.48,7.73a2.21,2.21,0,0,1-.81,3A3.12,3.12,0,0,1,110.78,124.2Zm-4.47-10h0c-.14,0-.14.14,0,0l4.47,7.73h.14v-.14l-4.61-7.59Z"/><path class="cls-6" d="M104,120.54h0a2.26,2.26,0,0,1-2.17-2.3,2.14,2.14,0,0,1,2.17-2.17h9a2.12,2.12,0,0,1,2.17,2,2.8,2.8,0,0,1-.54,1.49,2.24,2.24,0,0,1-1.63.68Zm9-2.3h-9c0,.13,0,.13.14.13l8.81-.13Z"/><path class="cls-7" d="M106.17,123.12a.79.79,0,0,1-.54-.14,1.09,1.09,0,0,1-.41-1.49l4.61-7.73a1.1,1.1,0,0,1,1.9,1.09l-4.61,7.73A1.15,1.15,0,0,1,106.17,123.12Z"/><path class="cls-7" d="M110.65,123.12a1.13,1.13,0,0,1-1-.54l-4.34-7.73a1.09,1.09,0,0,1,.4-1.49,1.1,1.1,0,0,1,1.5.4l4.33,7.73a1.08,1.08,0,0,1-.4,1.49C111.05,123.12,110.92,123.12,110.65,123.12Z"/><path class="cls-7" d="M104,119.46a1.23,1.23,0,0,1,0-2.44l9-.14h0a1.23,1.23,0,0,1,0,2.44l-9,.14Z"/><path class="cls-6" d="M30.51,124.2a2.54,2.54,0,0,1-1.09-.27,2.18,2.18,0,0,1-.81-3l4.48-7.86A2.15,2.15,0,0,1,35,112a2.65,2.65,0,0,1,1.09.27,2.19,2.19,0,0,1,.81,3l-4.47,7.86A2.29,2.29,0,0,1,30.51,124.2Zm4.47-10h0L30.51,122v.13h.13l4.34-8Z"/><path class="cls-6" d="M35.12,124.2a2.17,2.17,0,0,1-1.9-1.08l-4.47-7.73a2.2,2.2,0,0,1,.81-3,2.49,2.49,0,0,1,1.08-.27,2.14,2.14,0,0,1,1.9,1.08l4.48,7.6a2.21,2.21,0,0,1-.82,3A1.77,1.77,0,0,1,35.12,124.2Zm-4.48-10h0c-.13,0-.13.14,0,0l4.48,7.73h.13v-.14l-4.61-7.59Z"/><path class="cls-6" d="M28.34,120.54h0a2.26,2.26,0,0,1-2.17-2.3,2.14,2.14,0,0,1,2.17-2.17h9a2.12,2.12,0,0,1,2.17,2,2.8,2.8,0,0,1-.54,1.49,2.24,2.24,0,0,1-1.63.68Zm9-2.3H28.34c0,.13,0,.13.13.13l8.82-.13Z"/><path class="cls-7" d="M30.51,123.12A.78.78,0,0,1,30,123a1.08,1.08,0,0,1-.41-1.49l4.61-7.73a1.1,1.1,0,0,1,1.9,1.09l-4.61,7.73A1.15,1.15,0,0,1,30.51,123.12Z"/><path class="cls-7" d="M35,123.12a1.16,1.16,0,0,1-.95-.54l-4.33-7.73a1.09,1.09,0,1,1,1.89-1.09l4.34,7.73a1.09,1.09,0,0,1-.4,1.49C35.39,123.12,35.25,123.12,35,123.12Z"/><path class="cls-7" d="M28.34,119.46a1.23,1.23,0,0,1,0-2.44l9-.14h0a1.23,1.23,0,0,1,0,2.44l-8.95.14Z"/><path class="cls-6" d="M87.46,138.31a2.69,2.69,0,0,1-1.09-.27,2.2,2.2,0,0,1-.81-3L90,127.19a2.15,2.15,0,0,1,1.89-1.09,2.65,2.65,0,0,1,1.09.27,2.2,2.2,0,0,1,.81,3l-4.47,7.86A2.52,2.52,0,0,1,87.46,138.31Zm4.47-10h0l-4.47,7.87v.13h.13l4.34-8Z"/><path class="cls-6" d="M91.93,138.17A2.16,2.16,0,0,1,90,137.09l-4.48-7.73a2.23,2.23,0,0,1,.81-3,2.69,2.69,0,0,1,1.09-.27,2.18,2.18,0,0,1,1.9,1.09l4.47,7.73a2.22,2.22,0,0,1-.81,3A1.47,1.47,0,0,1,91.93,138.17Zm-4.47-9.9h0L91.93,136h.14v-.13l-4.61-7.6Z"/><path class="cls-6" d="M85.29,134.65h0a2.26,2.26,0,0,1-2.17-2.31,2.14,2.14,0,0,1,2.17-2.17h8.95a2.12,2.12,0,0,1,2.17,2,2.86,2.86,0,0,1-.54,1.49,2.28,2.28,0,0,1-1.63.67Zm8.95-2.31H85.29c0,.14,0,.14.13.14l8.82-.14Z"/><path class="cls-7" d="M87.32,137.09a.8.8,0,0,1-.54-.14,1.09,1.09,0,0,1-.41-1.49L91,127.73a1.1,1.1,0,1,1,1.9,1.09l-4.61,7.72A.77.77,0,0,1,87.32,137.09Z"/><path class="cls-7" d="M91.93,137.22a1.16,1.16,0,0,1-1-.54L86.65,129a1.09,1.09,0,1,1,1.89-1.08l4.34,7.72a1.1,1.1,0,0,1-.4,1.5A.86.86,0,0,1,91.93,137.22Z"/><path class="cls-7" d="M85.29,133.56a1.23,1.23,0,0,1,0-2.44l8.95-.14h0a1.19,1.19,0,0,1,1.08,1.23,1.2,1.2,0,0,1-1.08,1.22l-8.95.13Z"/></g></g></svg>