<svg xmlns="http://www.w3.org/2000/svg" viewBox="0 0 138.5 141.8"><defs><style>.cls-1{fill:#eff5f9;}.cls-2{fill:#fff;}.cls-3{fill:#cfdbe2;}.cls-4{fill:#343333;}.cls-5{fill:#4d4d4d;}</style></defs><g id="Layer_2" data-name="Layer 2"><g id="Layer_1-2" data-name="Layer 1"><path class="cls-1" d="M137,65.94a21.94,21.94,0,0,1-21.73,22h-90A24.38,24.38,0,0,1,22,39.52a16.18,16.18,0,0,1-.51-4.32,18.3,18.3,0,0,1,18.3-18.3,17.77,17.77,0,0,1,14.1,6.73A34.13,34.13,0,0,1,119.94,35.7a31.41,31.41,0,0,1-1.14,8.52A22.08,22.08,0,0,1,137,65.94Z"/><circle class="cls-2" cx="33.16" cy="25.67" r="5.59"/><circle class="cls-2" cx="57.56" cy="54" r="7.5"/><path class="cls-3" d="M29.73,80.05C6.61,80.05,1.65,64.93,1.65,64.93c3.43,24,25.67,22.74,25.67,22.74h88.05c9.78,0,19.31-6,21.6-18.42s-7.37-19.57-7.37-19.57c1.4,2,10.8,30.11-18.17,30.11H38.5Z"/><path class="cls-3" d="M118.93,44.22A37.58,37.58,0,0,0,115.37,20S120.83,41,100.63,46.12C100.63,46.25,111.43,42.31,118.93,44.22Z"/><path class="cls-3" d="M67.21,81.06s15.89-2.16,17-15.62A20.07,20.07,0,0,0,75,46.25S97.45,53.49,91.74,81.7"/><path class="cls-2" d="M67.47,22.62a3.84,3.84,0,0,1-2-.64A3.51,3.51,0,0,1,64.55,17c8.13-11.69,23-11.18,23.63-11.18a3.57,3.57,0,0,1,3.43,3.81,3.55,3.55,0,0,1-3.68,3.43c-.13,0-11.57-.38-17.41,8A3.79,3.79,0,0,1,67.47,22.62Z"/><path class="cls-2" d="M9.66,62.39a1.87,1.87,0,0,1-1.15-.26,3.59,3.59,0,0,1-2.28-4.57A20.88,20.88,0,0,1,18.68,44.47a23.59,23.59,0,0,1,8.51-1.78,3.58,3.58,0,0,1,3.56,3.69,3.64,3.64,0,0,1-3.56,3.56h0c-.51,0-10.67.12-14,10A4,4,0,0,1,9.66,62.39Z"/><path class="cls-2" d="M101,58.83a3.56,3.56,0,0,1-2.28-6.35c7.87-6.48,17.66-4.7,18-4.7a3.56,3.56,0,1,1-1.4,7c-.13,0-6.86-1.14-12.07,3.18A3.26,3.26,0,0,1,101,58.83Z"/><path class="cls-4" d="M115.24,89.45H25.16A26.05,26.05,0,0,1,0,63.53a25.69,25.69,0,0,1,6.23-16.9,26.15,26.15,0,0,1,13.85-8.38,24,24,0,0,1-.13-3A19.87,19.87,0,0,1,53.37,20.71a35.76,35.76,0,0,1,67.46,22.36A23.57,23.57,0,0,1,138.5,65.94a23.67,23.67,0,0,1-23.26,23.51Zm-89.19-3.3h89.32a20.66,20.66,0,0,0,14.23-6,20.1,20.1,0,0,0,5.85-14.36,20.32,20.32,0,0,0-16.78-20.08c-.38-.12-.89-.38-1-.76a2.25,2.25,0,0,1-.26-1.27,34.55,34.55,0,0,0,1-8.13A32.59,32.59,0,0,0,67.21,8.89,33.84,33.84,0,0,0,55.4,24a1.78,1.78,0,0,1-1.27,1,1.75,1.75,0,0,1-1.53-.51,16.36,16.36,0,0,0-12.83-6.1A16.71,16.71,0,0,0,23.12,35.07,14,14,0,0,0,23.63,39a1.57,1.57,0,0,1-.25,1.27,1.9,1.9,0,0,1-1.14.76,23.35,23.35,0,0,0-13.6,7.62A22.74,22.74,0,0,0,25.28,86.15h.77Z"/><path class="cls-5" d="M23.63,85.77H23v.12C23.25,85.89,23.38,85.77,23.63,85.77Z"/><path class="cls-5" d="M104.44,85.89Z"/><path class="cls-4" d="M40.15,41.8a.8.8,0,0,1-.51-.12C31.38,39,20.58,41.3,20.46,41.3A1.63,1.63,0,0,1,18.55,40a1.61,1.61,0,0,1,1.27-1.9c.51-.13,11.82-2.54,20.84.51a1.56,1.56,0,0,1,1,2A1.6,1.6,0,0,1,40.15,41.8Z"/><path class="cls-4" d="M100.25,48.54a1.78,1.78,0,0,1-1.4-.76,1.49,1.49,0,0,1,.51-2.16c8.39-5.09,20.58-2.8,21.09-2.67a1.62,1.62,0,1,1-.63,3.17c-.13,0-11.44-2.16-18.81,2.29A1.57,1.57,0,0,1,100.25,48.54Z"/><circle class="cls-4" cx="94.66" cy="49.43" r="2.16"/><circle class="cls-4" cx="58.07" cy="35.7" r="2.16"/><circle class="cls-4" cx="89.7" cy="62.01" r="2.16"/><path class="cls-4" d="M56.54,31.77a1.77,1.77,0,0,1-1.65-1.4c-.38-2.67-2.29-5.72-2.92-6.74a1.64,1.64,0,0,1,2.67-1.9c.12.13,3,4.19,3.55,8.13a1.58,1.58,0,0,1-1.39,1.78A.4.4,0,0,1,56.54,31.77Z"/><path class="cls-4" d="M39.39,65.44h-.13a1.59,1.59,0,0,1-1.4-1.78,23.35,23.35,0,0,1,2.55-7.75,24.59,24.59,0,0,1,14-11.57A32.93,32.93,0,0,1,79.16,46c5.08,2.54,8.77,6.22,10,10a1.61,1.61,0,1,1-3,1c-1-3-4.07-6.1-8.39-8.13a30.39,30.39,0,0,0-22.36-1.4,21.26,21.26,0,0,0-12.2,9.91A21,21,0,0,0,40.91,64,1.53,1.53,0,0,1,39.39,65.44Z"/><path class="cls-4" d="M61.12,136.34h-.26a1.59,1.59,0,0,1-1.4-1.78l5.59-38.12a1.6,1.6,0,1,1,3.18.38l-5.59,38.12A1.44,1.44,0,0,1,61.12,136.34Z"/><path class="cls-4" d="M40.4,136.34h-.25a1.59,1.59,0,0,1-1.4-1.78l2-14A1.6,1.6,0,1,1,44,121l-2,14A1.44,1.44,0,0,1,40.4,136.34Z"/><path class="cls-4" d="M43.71,114.23h-.26a1.58,1.58,0,0,1-1.39-1.78l2.41-16a1.6,1.6,0,1,1,3.18.38l-2.29,16A1.73,1.73,0,0,1,43.71,114.23Z"/><path class="cls-4" d="M102.54,136.34h-.26a1.58,1.58,0,0,1-1.39-1.78l5.59-38.12a1.6,1.6,0,1,1,3.17.38l-5.59,38.12A1.44,1.44,0,0,1,102.54,136.34Z"/><path class="cls-4" d="M81.7,136.34h-.25a1.58,1.58,0,0,1-1.4-1.78l5.59-38.12a1.6,1.6,0,1,1,3.17.38l-5.59,38.12A1.37,1.37,0,0,1,81.7,136.34Z"/><circle class="cls-4" cx="39.52" cy="139.77" r="2.03"/><circle class="cls-4" cx="60.23" cy="139.77" r="2.03"/><circle class="cls-4" cx="80.94" cy="139.77" r="2.03"/><circle class="cls-4" cx="101.65" cy="139.77" r="2.03"/><path class="cls-4" d="M50.82,136.34h-.25a1.59,1.59,0,0,1-1.4-1.78l5.59-38.12a1.6,1.6,0,1,1,3.18.38l-5.59,38.12A1.44,1.44,0,0,1,50.82,136.34Z"/><path class="cls-4" d="M30.11,136.34h-.25a1.58,1.58,0,0,1-1.4-1.78l5.59-38.12a1.6,1.6,0,1,1,3.18.38l-5.59,38.12A1.52,1.52,0,0,1,30.11,136.34Z"/><path class="cls-4" d="M92.25,136.34H92a1.59,1.59,0,0,1-1.4-1.78l5.59-38.12a1.6,1.6,0,1,1,3.18.38l-5.59,38.12A1.52,1.52,0,0,1,92.25,136.34Z"/><path class="cls-4" d="M71.53,136.34h-.25a1.59,1.59,0,0,1-1.4-1.78l5.59-38.12a1.6,1.6,0,1,1,3.18.38l-5.59,38.12A1.52,1.52,0,0,1,71.53,136.34Z"/><circle class="cls-4" cx="29.22" cy="139.77" r="2.03"/><circle class="cls-4" cx="49.93" cy="139.77" r="2.03"/><circle class="cls-4" cx="70.65" cy="139.77" r="2.03"/><circle class="cls-4" cx="91.23" cy="139.77" r="2.03"/></g></g></svg>