<?xml version="1.0" ?><svg data-name="Layer 7" height="24" id="Layer_7" viewBox="0 0 24 24" width="24" xmlns="http://www.w3.org/2000/svg"><title/><path d="M8,12a1,1,0,0,0,1,1h6a1,1,0,0,0,0-2H9A1,1,0,0,0,8,12Z"/><path d="M10,15H7.11865a3.08,3.08,0,0,1-3.06049-2.402A3.00491,3.00491,0,0,1,7,9h3a1,1,0,0,0,0-2H7.2149A5.14513,5.14513,0,0,0,2.0235,11.50879,5.001,5.001,0,0,0,7,17h3a1,1,0,0,0,0-2Z"/><path d="M21.9765,11.50879A5.14513,5.14513,0,0,0,16.7851,7H14a1,1,0,0,0,0,2h2.88129a3.08,3.08,0,0,1,3.06049,2.40186A3.0049,3.0049,0,0,1,17,15H14a1,1,0,0,0,0,2h3A5.001,5.001,0,0,0,21.9765,11.50879Z"/></svg>