<svg xmlns="http://www.w3.org/2000/svg" viewBox="0 0 141.86 97.7"><defs><style>.cls-1{fill:#ffc943;}.cls-2{fill:#ffd683;}.cls-3{fill:#f7b521;}.cls-4{fill:#fff7e9;}.cls-5{fill:#343333;}.cls-6{fill:#eff5f9;}.cls-7{fill:#fff;}.cls-8{fill:#cfdbe2;}.cls-9{fill:#4d4d4d;}</style></defs><g id="Layer_2" data-name="Layer 2"><g id="Layer_1-2" data-name="Layer 1"><circle class="cls-1" cx="41.39" cy="41.39" r="39.77"/><circle class="cls-2" cx="29.94" cy="29.94" r="23.47"/><path class="cls-3" d="M13.18,69.49A39.77,39.77,0,0,0,69.49,13.3s15.6,30.87-4.86,51.33C43.36,85.9,13.18,69.49,13.18,69.49Z"/><path class="cls-4" d="M10.29,40H9.83a2.66,2.66,0,0,1-2.2-3.12A38.75,38.75,0,0,1,23.93,12a2.7,2.7,0,0,1,2.78,4.63h0a28.08,28.08,0,0,0-6,5.32,32.44,32.44,0,0,0-7.87,16A2.6,2.6,0,0,1,10.29,40Z"/><circle class="cls-4" cx="10.06" cy="44.97" r="3.24"/><path class="cls-5" d="M41.39,82.78A41.39,41.39,0,1,1,82.78,41.39,41.49,41.49,0,0,1,41.39,82.78Zm0-79.54A38.15,38.15,0,1,0,79.54,41.39,38.19,38.19,0,0,0,41.39,3.24Z"/><path class="cls-6" d="M140.24,73.65A22.4,22.4,0,0,1,118,96.08H26a24.86,24.86,0,0,1-3.23-49.37,18.15,18.15,0,0,1-.58-4.39A18.73,18.73,0,0,1,55.38,30.41,35,35,0,0,1,123,42.78a31.53,31.53,0,0,1-1.16,8.78A22.48,22.48,0,0,1,140.24,73.65Z"/><circle class="cls-7" cx="34.11" cy="32.6" r="5.78"/><circle class="cls-7" cx="59.08" cy="61.51" r="7.63"/><path class="cls-8" d="M30.64,88.22C6.94,88.22,2,72.84,2,72.84,5.55,97.35,28.21,96.19,28.21,96.19h89.95c9.83,0,19.77-6,22.08-18.73s-7.51-20-7.51-20c1.5,2.08,11.1,30.87-18.62,30.87H39.66Z"/><path class="cls-8" d="M121.86,51.56a38.54,38.54,0,0,0-3.58-24.85s5.66,21.5-15,26.82C103.13,53.53,114.23,49.6,121.86,51.56Z"/><path class="cls-8" d="M68.91,89.14s16.18-2.2,17.46-16a20.32,20.32,0,0,0-9.49-19.54s23,7.4,17.23,36.18"/><path class="cls-7" d="M69.25,29.37a3.43,3.43,0,0,1-2.08-.7,3.68,3.68,0,0,1-.92-5.08c8.32-11.91,23.47-11.45,24.16-11.33a3.62,3.62,0,0,1,3.47,3.81,3.71,3.71,0,0,1-3.81,3.47c-.12,0-11.8-.35-17.81,8.21A3.38,3.38,0,0,1,69.25,29.37Z"/><path class="cls-7" d="M10.17,70.06A3.92,3.92,0,0,1,9,69.83a3.7,3.7,0,0,1-2.31-4.62A21.5,21.5,0,0,1,19.42,51.8,23.73,23.73,0,0,1,28.09,50a3.56,3.56,0,0,1,3.59,3.7A3.63,3.63,0,0,1,28,57.23h0c-.46,0-10.87.12-14.34,10.29A3.56,3.56,0,0,1,10.17,70.06Z"/><path class="cls-7" d="M103.48,66.36A3.47,3.47,0,0,1,100.7,65a3.79,3.79,0,0,1,.46-5.21c8-6.7,18-4.85,18.39-4.74a3.6,3.6,0,0,1,2.89,4.28,3.67,3.67,0,0,1-4.28,2.89c-.12,0-7-1.15-12.37,3.24A3.13,3.13,0,0,1,103.48,66.36Z"/><path class="cls-5" d="M118,97.7H26A26.67,26.67,0,0,1,.35,71.1,26.45,26.45,0,0,1,20.81,45.32a29.76,29.76,0,0,1-.23-3.12A20.38,20.38,0,0,1,40.93,21.85,19.9,19.9,0,0,1,54.8,27.4,35.38,35.38,0,0,1,66.94,12.83,37.24,37.24,0,0,1,88,6.24a36.62,36.62,0,0,1,36.54,36.54,32.37,32.37,0,0,1-.81,7.51,24,24,0,0,1,18.15,23.36,23.69,23.69,0,0,1-6.94,16.88A23.25,23.25,0,0,1,118,97.7ZM26.82,94.46h91.34a21.09,21.09,0,0,0,14.45-6.13,20.84,20.84,0,0,0-11.1-35.15,1.62,1.62,0,0,1-1.27-2,33.71,33.71,0,0,0,1-8.33A33.3,33.3,0,0,0,88,9.6a32.79,32.79,0,0,0-19.07,6,33.88,33.88,0,0,0-12,15.49,1.64,1.64,0,0,1-1.27,1,1.48,1.48,0,0,1-1.5-.58A17,17,0,0,0,23.93,42.32a16,16,0,0,0,.47,4,1.59,1.59,0,0,1-.24,1.27,1.52,1.52,0,0,1-1.15.7A23.79,23.79,0,0,0,9.13,56.19,23.32,23.32,0,0,0,3.58,71.34a23,23,0,0,0,6.59,16.18,23.14,23.14,0,0,0,16,7h.35A.42.42,0,0,1,26.82,94.46Z"/><path class="cls-9" d="M24.51,94h-.69v.11C24.05,94.11,24.16,94,24.51,94Z"/><path class="cls-9" d="M107,94.11Z"/><path class="cls-5" d="M41.27,49a.73.73,0,0,1-.46-.11c-8.44-2.78-19.42-.47-19.54-.35a1.66,1.66,0,0,1-.69-3.24c.46-.11,12-2.54,21.27.46a1.6,1.6,0,0,1,1,2.09A1.68,1.68,0,0,1,41.27,49Z"/><path class="cls-5" d="M102.78,56a1.39,1.39,0,0,1-1.38-.81,1.69,1.69,0,0,1,.57-2.31c8.56-5.21,21-2.78,21.62-2.66a1.65,1.65,0,1,1-.69,3.23c-.12,0-11.79-2.19-19.19,2.32A3.89,3.89,0,0,1,102.78,56Z"/><circle class="cls-5" cx="97" cy="56.77" r="2.2"/><circle class="cls-5" cx="59.54" cy="42.78" r="2.2"/><circle class="cls-5" cx="91.91" cy="69.72" r="2.2"/><path class="cls-5" d="M58,38.85a1.63,1.63,0,0,1-1.62-1.39,17.08,17.08,0,0,0-3-6.82,1.66,1.66,0,0,1,2.66-2c.12.12,3.13,4.28,3.7,8.33a1.6,1.6,0,0,1-1.38,1.85Z"/><path class="cls-5" d="M40.47,73.3h-.12a1.64,1.64,0,0,1-1.5-1.73,22.52,22.52,0,0,1,2.54-7.87A25.13,25.13,0,0,1,55.73,51.91a33.22,33.22,0,0,1,25.32,1.74C86.25,56.19,90,60,91.34,63.94a1.64,1.64,0,1,1-3.12,1c-1-3-4.17-6.13-8.56-8.33a30,30,0,0,0-22.78-1.5A21.66,21.66,0,0,0,44.4,65.32,20.15,20.15,0,0,0,42.08,72,1.75,1.75,0,0,1,40.47,73.3Z"/></g></g></svg>